<mxfile host="app.diagrams.net" modified="2024-04-23T17:30:13.075Z" agent="Mozilla/5.0 (Windows NT 10.0; Win64; x64) AppleWebKit/537.36 (KHTML, like Gecko) Chrome/123.0.0.0 Safari/537.36" etag="w0XWE3eySC81UZenBrzj" version="24.2.3" type="device">
  <diagram name="Страница — 1" id="xL4flw5cvT83LRmOHqr6">
    <mxGraphModel dx="819" dy="1664" grid="1" gridSize="10" guides="1" tooltips="1" connect="1" arrows="1" fold="1" page="1" pageScale="1" pageWidth="827" pageHeight="1169" math="0" shadow="0">
      <root>
        <mxCell id="0" />
        <mxCell id="1" parent="0" />
        <mxCell id="qH_OvlX7OBxyswbJmEU5-1" value="&lt;font style=&quot;font-size: 18px;&quot;&gt;Character&lt;/font&gt;" style="rounded=0;whiteSpace=wrap;html=1;" vertex="1" parent="1">
          <mxGeometry x="40" y="60" width="120" height="60" as="geometry" />
        </mxCell>
        <mxCell id="qH_OvlX7OBxyswbJmEU5-2" value="" style="endArrow=none;html=1;rounded=0;" edge="1" parent="1">
          <mxGeometry width="50" height="50" relative="1" as="geometry">
            <mxPoint x="70" y="350" as="sourcePoint" />
            <mxPoint x="70" y="120" as="targetPoint" />
          </mxGeometry>
        </mxCell>
        <mxCell id="qH_OvlX7OBxyswbJmEU5-5" value="" style="endArrow=classic;html=1;rounded=0;shape=link;" edge="1" parent="1">
          <mxGeometry relative="1" as="geometry">
            <mxPoint x="70" y="160" as="sourcePoint" />
            <mxPoint x="170" y="160" as="targetPoint" />
          </mxGeometry>
        </mxCell>
        <mxCell id="qH_OvlX7OBxyswbJmEU5-6" value="name" style="edgeLabel;resizable=0;html=1;;align=center;verticalAlign=middle;" connectable="0" vertex="1" parent="qH_OvlX7OBxyswbJmEU5-5">
          <mxGeometry relative="1" as="geometry">
            <mxPoint as="offset" />
          </mxGeometry>
        </mxCell>
        <mxCell id="qH_OvlX7OBxyswbJmEU5-7" value="" style="endArrow=classic;html=1;rounded=0;shape=link;" edge="1" parent="1">
          <mxGeometry relative="1" as="geometry">
            <mxPoint x="70" y="180" as="sourcePoint" />
            <mxPoint x="170" y="180" as="targetPoint" />
          </mxGeometry>
        </mxCell>
        <mxCell id="qH_OvlX7OBxyswbJmEU5-8" value="level" style="edgeLabel;resizable=0;html=1;;align=center;verticalAlign=middle;" connectable="0" vertex="1" parent="qH_OvlX7OBxyswbJmEU5-7">
          <mxGeometry relative="1" as="geometry" />
        </mxCell>
        <mxCell id="qH_OvlX7OBxyswbJmEU5-9" value="health" style="endArrow=classic;html=1;rounded=0;shape=link;" edge="1" parent="1">
          <mxGeometry relative="1" as="geometry">
            <mxPoint x="70" y="200" as="sourcePoint" />
            <mxPoint x="170" y="200" as="targetPoint" />
          </mxGeometry>
        </mxCell>
        <mxCell id="qH_OvlX7OBxyswbJmEU5-10" value="health" style="edgeLabel;resizable=0;html=1;;align=center;verticalAlign=middle;" connectable="0" vertex="1" parent="qH_OvlX7OBxyswbJmEU5-9">
          <mxGeometry relative="1" as="geometry" />
        </mxCell>
        <mxCell id="qH_OvlX7OBxyswbJmEU5-11" value="" style="endArrow=classic;html=1;rounded=0;shape=link;" edge="1" parent="1">
          <mxGeometry relative="1" as="geometry">
            <mxPoint x="70" y="220" as="sourcePoint" />
            <mxPoint x="170" y="220" as="targetPoint" />
          </mxGeometry>
        </mxCell>
        <mxCell id="qH_OvlX7OBxyswbJmEU5-12" value="strenght" style="edgeLabel;resizable=0;html=1;;align=center;verticalAlign=middle;" connectable="0" vertex="1" parent="qH_OvlX7OBxyswbJmEU5-11">
          <mxGeometry relative="1" as="geometry" />
        </mxCell>
        <mxCell id="qH_OvlX7OBxyswbJmEU5-13" value="" style="endArrow=classic;html=1;rounded=0;shape=link;" edge="1" parent="1">
          <mxGeometry relative="1" as="geometry">
            <mxPoint x="70" y="240" as="sourcePoint" />
            <mxPoint x="170" y="240" as="targetPoint" />
          </mxGeometry>
        </mxCell>
        <mxCell id="qH_OvlX7OBxyswbJmEU5-14" value="agility" style="edgeLabel;resizable=0;html=1;;align=center;verticalAlign=middle;" connectable="0" vertex="1" parent="qH_OvlX7OBxyswbJmEU5-13">
          <mxGeometry relative="1" as="geometry" />
        </mxCell>
        <mxCell id="qH_OvlX7OBxyswbJmEU5-15" value="" style="endArrow=classic;html=1;rounded=0;shape=link;" edge="1" parent="1">
          <mxGeometry relative="1" as="geometry">
            <mxPoint x="70" y="260" as="sourcePoint" />
            <mxPoint x="170" y="260" as="targetPoint" />
          </mxGeometry>
        </mxCell>
        <mxCell id="qH_OvlX7OBxyswbJmEU5-16" value="inteligence" style="edgeLabel;resizable=0;html=1;;align=center;verticalAlign=middle;" connectable="0" vertex="1" parent="qH_OvlX7OBxyswbJmEU5-15">
          <mxGeometry relative="1" as="geometry" />
        </mxCell>
        <mxCell id="qH_OvlX7OBxyswbJmEU5-17" value="inventory" style="endArrow=classic;html=1;rounded=0;shape=link;" edge="1" parent="1">
          <mxGeometry relative="1" as="geometry">
            <mxPoint x="70" y="280" as="sourcePoint" />
            <mxPoint x="170" y="280" as="targetPoint" />
          </mxGeometry>
        </mxCell>
        <mxCell id="qH_OvlX7OBxyswbJmEU5-19" value="&lt;font style=&quot;font-size: 18px;&quot;&gt;Item&lt;/font&gt;" style="rounded=0;whiteSpace=wrap;html=1;" vertex="1" parent="1">
          <mxGeometry x="310" y="60" width="120" height="60" as="geometry" />
        </mxCell>
        <mxCell id="qH_OvlX7OBxyswbJmEU5-20" value="" style="endArrow=none;html=1;rounded=0;" edge="1" parent="1">
          <mxGeometry width="50" height="50" relative="1" as="geometry">
            <mxPoint x="350" y="350" as="sourcePoint" />
            <mxPoint x="350" y="120" as="targetPoint" />
          </mxGeometry>
        </mxCell>
        <mxCell id="qH_OvlX7OBxyswbJmEU5-21" value="" style="endArrow=classic;html=1;rounded=0;shape=link;" edge="1" parent="1">
          <mxGeometry relative="1" as="geometry">
            <mxPoint x="350" y="160" as="sourcePoint" />
            <mxPoint x="450" y="160" as="targetPoint" />
          </mxGeometry>
        </mxCell>
        <mxCell id="qH_OvlX7OBxyswbJmEU5-22" value="name" style="edgeLabel;resizable=0;html=1;;align=center;verticalAlign=middle;" connectable="0" vertex="1" parent="qH_OvlX7OBxyswbJmEU5-21">
          <mxGeometry relative="1" as="geometry">
            <mxPoint as="offset" />
          </mxGeometry>
        </mxCell>
        <mxCell id="qH_OvlX7OBxyswbJmEU5-23" value="type" style="endArrow=classic;html=1;rounded=0;shape=link;" edge="1" parent="1">
          <mxGeometry relative="1" as="geometry">
            <mxPoint x="350" y="190" as="sourcePoint" />
            <mxPoint x="450" y="190" as="targetPoint" />
          </mxGeometry>
        </mxCell>
        <mxCell id="qH_OvlX7OBxyswbJmEU5-24" value="cost" style="endArrow=classic;html=1;rounded=0;shape=link;" edge="1" parent="1">
          <mxGeometry relative="1" as="geometry">
            <mxPoint x="350" y="220" as="sourcePoint" />
            <mxPoint x="450" y="220" as="targetPoint" />
          </mxGeometry>
        </mxCell>
        <mxCell id="qH_OvlX7OBxyswbJmEU5-25" value="weight" style="endArrow=classic;html=1;rounded=0;shape=link;" edge="1" parent="1">
          <mxGeometry relative="1" as="geometry">
            <mxPoint x="350" y="250" as="sourcePoint" />
            <mxPoint x="450" y="250" as="targetPoint" />
          </mxGeometry>
        </mxCell>
        <mxCell id="qH_OvlX7OBxyswbJmEU5-26" value="&lt;span style=&quot;font-size: 18px;&quot;&gt;Game&lt;/span&gt;" style="rounded=0;whiteSpace=wrap;html=1;" vertex="1" parent="1">
          <mxGeometry x="550" y="60" width="120" height="60" as="geometry" />
        </mxCell>
        <mxCell id="qH_OvlX7OBxyswbJmEU5-27" value="Character list" style="endArrow=classic;html=1;rounded=0;shape=link;" edge="1" parent="1">
          <mxGeometry relative="1" as="geometry">
            <mxPoint x="590" y="160" as="sourcePoint" />
            <mxPoint x="690" y="160" as="targetPoint" />
          </mxGeometry>
        </mxCell>
        <mxCell id="qH_OvlX7OBxyswbJmEU5-28" value="" style="endArrow=none;html=1;rounded=0;" edge="1" parent="1">
          <mxGeometry width="50" height="50" relative="1" as="geometry">
            <mxPoint x="590" y="350" as="sourcePoint" />
            <mxPoint x="590" y="120" as="targetPoint" />
          </mxGeometry>
        </mxCell>
        <mxCell id="qH_OvlX7OBxyswbJmEU5-30" value="Item list" style="endArrow=classic;html=1;rounded=0;shape=link;" edge="1" parent="1">
          <mxGeometry relative="1" as="geometry">
            <mxPoint x="590" y="190" as="sourcePoint" />
            <mxPoint x="690" y="190" as="targetPoint" />
          </mxGeometry>
        </mxCell>
        <mxCell id="qH_OvlX7OBxyswbJmEU5-31" value="create\delete\&lt;div&gt;edit&lt;/div&gt;" style="rhombus;whiteSpace=wrap;html=1;" vertex="1" parent="1">
          <mxGeometry x="330" y="-220" width="80" height="80" as="geometry" />
        </mxCell>
        <mxCell id="qH_OvlX7OBxyswbJmEU5-32" value="" style="endArrow=none;html=1;rounded=0;" edge="1" parent="1" target="qH_OvlX7OBxyswbJmEU5-31">
          <mxGeometry width="50" height="50" relative="1" as="geometry">
            <mxPoint x="110" y="60" as="sourcePoint" />
            <mxPoint x="160" y="10" as="targetPoint" />
          </mxGeometry>
        </mxCell>
        <mxCell id="qH_OvlX7OBxyswbJmEU5-33" value="" style="endArrow=none;html=1;rounded=0;exitX=1;exitY=1;exitDx=0;exitDy=0;entryX=0.5;entryY=0;entryDx=0;entryDy=0;" edge="1" parent="1" source="qH_OvlX7OBxyswbJmEU5-31" target="qH_OvlX7OBxyswbJmEU5-26">
          <mxGeometry width="50" height="50" relative="1" as="geometry">
            <mxPoint x="470" y="-90" as="sourcePoint" />
            <mxPoint x="550" y="50" as="targetPoint" />
          </mxGeometry>
        </mxCell>
        <mxCell id="qH_OvlX7OBxyswbJmEU5-34" value="" style="endArrow=classic;html=1;rounded=0;" edge="1" parent="1">
          <mxGeometry width="50" height="50" relative="1" as="geometry">
            <mxPoint x="389.5" y="-160" as="sourcePoint" />
            <mxPoint x="350.5" y="-160" as="targetPoint" />
          </mxGeometry>
        </mxCell>
        <mxCell id="qH_OvlX7OBxyswbJmEU5-35" value="add\remove&lt;div&gt;\show item&lt;/div&gt;" style="rhombus;whiteSpace=wrap;html=1;" vertex="1" parent="1">
          <mxGeometry x="330" y="-110" width="80" height="80" as="geometry" />
        </mxCell>
        <mxCell id="qH_OvlX7OBxyswbJmEU5-36" value="" style="endArrow=classic;html=1;rounded=0;" edge="1" parent="1">
          <mxGeometry width="50" height="50" relative="1" as="geometry">
            <mxPoint x="389.5" y="-50" as="sourcePoint" />
            <mxPoint x="350.5" y="-50" as="targetPoint" />
          </mxGeometry>
        </mxCell>
        <mxCell id="qH_OvlX7OBxyswbJmEU5-37" value="" style="endArrow=none;html=1;rounded=0;entryX=0.011;entryY=0.914;entryDx=0;entryDy=0;entryPerimeter=0;" edge="1" parent="1">
          <mxGeometry width="50" height="50" relative="1" as="geometry">
            <mxPoint x="389" y="-50" as="sourcePoint" />
            <mxPoint x="550.0000000000001" y="114.84000000000015" as="targetPoint" />
          </mxGeometry>
        </mxCell>
        <mxCell id="qH_OvlX7OBxyswbJmEU5-38" value="" style="endArrow=none;html=1;rounded=0;exitX=1.032;exitY=0.879;exitDx=0;exitDy=0;exitPerimeter=0;entryX=0;entryY=1;entryDx=0;entryDy=0;" edge="1" parent="1" target="qH_OvlX7OBxyswbJmEU5-35">
          <mxGeometry width="50" height="50" relative="1" as="geometry">
            <mxPoint x="160.00000000000014" y="112.74000000000024" as="sourcePoint" />
            <mxPoint x="346.16" y="-40" as="targetPoint" />
          </mxGeometry>
        </mxCell>
        <mxCell id="qH_OvlX7OBxyswbJmEU5-39" value="XML" style="rhombus;whiteSpace=wrap;html=1;" vertex="1" parent="1">
          <mxGeometry x="730" y="-90" width="80" height="80" as="geometry" />
        </mxCell>
        <mxCell id="qH_OvlX7OBxyswbJmEU5-40" value="" style="endArrow=classic;html=1;rounded=0;entryX=0.263;entryY=0.829;entryDx=0;entryDy=0;entryPerimeter=0;" edge="1" parent="1" target="qH_OvlX7OBxyswbJmEU5-39">
          <mxGeometry width="50" height="50" relative="1" as="geometry">
            <mxPoint x="670" y="60" as="sourcePoint" />
            <mxPoint x="720" y="10" as="targetPoint" />
          </mxGeometry>
        </mxCell>
        <mxCell id="qH_OvlX7OBxyswbJmEU5-41" value="save" style="text;html=1;align=center;verticalAlign=middle;resizable=0;points=[];autosize=1;strokeColor=none;fillColor=none;" vertex="1" parent="1">
          <mxGeometry x="670" y="-10" width="50" height="30" as="geometry" />
        </mxCell>
        <mxCell id="qH_OvlX7OBxyswbJmEU5-42" value="interface" style="ellipse;whiteSpace=wrap;html=1;" vertex="1" parent="1">
          <mxGeometry x="490" y="380" width="70" height="50" as="geometry" />
        </mxCell>
        <mxCell id="qH_OvlX7OBxyswbJmEU5-43" value="find character" style="ellipse;whiteSpace=wrap;html=1;" vertex="1" parent="1">
          <mxGeometry x="600" y="380" width="80" height="50" as="geometry" />
        </mxCell>
        <mxCell id="qH_OvlX7OBxyswbJmEU5-46" value="" style="endArrow=classic;html=1;rounded=0;exitX=1;exitY=0;exitDx=0;exitDy=0;" edge="1" parent="1" source="qH_OvlX7OBxyswbJmEU5-42">
          <mxGeometry width="50" height="50" relative="1" as="geometry">
            <mxPoint x="540" y="400" as="sourcePoint" />
            <mxPoint x="590" y="350" as="targetPoint" />
          </mxGeometry>
        </mxCell>
        <mxCell id="qH_OvlX7OBxyswbJmEU5-47" value="" style="endArrow=classic;html=1;rounded=0;exitX=0.273;exitY=0.103;exitDx=0;exitDy=0;exitPerimeter=0;" edge="1" parent="1" source="qH_OvlX7OBxyswbJmEU5-43">
          <mxGeometry width="50" height="50" relative="1" as="geometry">
            <mxPoint x="620" y="380" as="sourcePoint" />
            <mxPoint x="590" y="350" as="targetPoint" />
          </mxGeometry>
        </mxCell>
      </root>
    </mxGraphModel>
  </diagram>
</mxfile>
